<?xml version="1.0" encoding="UTF-8"?>
<svg xmlns="http://www.w3.org/2000/svg" xmlns:xlink="http://www.w3.org/1999/xlink"
     width="1500" height="1500" viewBox="0 -1500 1500 1500">
<defs>
</defs>
<path d="M102.0,-48.74368670764579 L101.99999999999999,-384.6231225989038 C101.99999999999999,-385.7269526478908,101.99999999999999,-385.7269526478908,103.08994701595586,-385.9014699234127 L120.70904285726743,-388.7225580665722 C121.7989898732233,-388.8970753420941,121.7989898732233,-388.8970753420941,121.7989898732233,-390.0009053910811 L121.79898987322333,-395.88137279067723" stroke-width="0.3" stroke="black" fill="none" fill-opacity="0.2" />
<path d="M98.0,-48.74368670764579 L97.99999999999997,-388.03361048450114 C97.99999999999997,-389.13744053348813,97.99999999999997,-389.13744053348813,99.08994701595584,-389.31195780901004 L116.70904285726742,-392.13304595216954 C117.79898987322329,-392.30756322769145,117.79898987322329,-392.30756322769145,117.79898987322329,-393.41139327667844 L117.79898987322333,-395.88137279067723" stroke-width="0.3" stroke="black" fill="none" fill-opacity="0.2" />
<path d="M121.79898987322333,-395.88137279067723 C121.79898987322333,-396.9852028396642,121.79898987322333,-396.9852028396642,120.69515982423631,-396.9852028396642 L118.90281992221036,-396.9852028396642 C117.79898987322333,-396.9852028396642,117.79898987322333,-396.9852028396642,117.79898987322333,-395.88137279067723" stroke-width="0.3" stroke="black" fill="none" fill-opacity="0.2" />
<path d="M95.0,-48.74368670764579 L94.99999999999997,-361.4390793825334 C94.99999999999997,-362.5429094315204,94.99999999999997,-362.5429094315204,93.93755491238554,-362.8423275553049 L81.21320268269692,-366.4283026945392 C80.15075759508248,-366.7277208183237,80.15075759508248,-366.7277208183237,80.15075759508248,-367.8315508673107 L80.1507575950825,-376.8008765754978" stroke-width="0.3" stroke="black" fill="none" fill-opacity="0.2" />
<path d="M91.0,-48.74368670764579 L90.99999999999997,-358.41054855461573 C90.99999999999997,-359.5143786036027,90.99999999999997,-359.5143786036027,89.93755491238554,-359.8137967273872 L77.2132026826969,-363.3997718666215 C76.15075759508247,-363.699189990406,76.15075759508247,-363.699189990406,76.15075759508247,-364.803020039393 L76.1507575950825,-376.8008765754978" stroke-width="0.3" stroke="black" fill="none" fill-opacity="0.2" />
<path d="M80.1507575950825,-376.8008765754978 C80.1507575950825,-377.9047066244848,80.1507575950825,-377.9047066244848,79.04692754609547,-377.9047066244848 L77.25458764406952,-377.9047066244848 C76.1507575950825,-377.9047066244848,76.1507575950825,-377.9047066244848,76.1507575950825,-376.8008765754978" stroke-width="0.3" stroke="black" fill="none" fill-opacity="0.2" />
<path d="M109.0,-48.74368670764579 L108.99999999999999,-298.31650633721864 C108.99999999999999,-299.42033638620563,108.99999999999999,-299.42033638620563,109.94441398979865,-299.99175829068537 L122.90482841511883,-307.83351495011635 C123.84924240491749,-308.4049368545961,123.84924240491749,-308.4049368545961,123.84924240491749,-309.5087669035831 L123.8492424049175,-321.53285798564184" stroke-width="0.3" stroke="black" fill="none" fill-opacity="0.2" />
<path d="M105.0,-48.74368670764579 L104.99999999999999,-300.5714841340671 C104.99999999999999,-301.67531418305407,104.99999999999999,-301.67531418305407,105.94441398979865,-302.2467360875338 L118.90482841511881,-310.0884927469648 C119.84924240491748,-310.6599146514445,119.84924240491748,-310.6599146514445,119.84924240491748,-311.7637447004315 L119.8492424049175,-321.53285798564184" stroke-width="0.3" stroke="black" fill="none" fill-opacity="0.2" />
<path d="M123.8492424049175,-321.53285798564184 C123.8492424049175,-322.63668803462883,123.8492424049175,-322.63668803462883,122.74541235593048,-322.63668803462883 L120.95307245390453,-322.63668803462883 C119.8492424049175,-322.63668803462883,119.8492424049175,-322.63668803462883,119.8492424049175,-321.53285798564184" stroke-width="0.3" stroke="black" fill="none" fill-opacity="0.2" />
<path d="M88.0,-48.74368670764579 L87.99999999999999,-290.6704555591921 C87.99999999999999,-291.77428560817907,87.99999999999999,-291.77428560817907,87.07700560190575,-292.3796963102098 L73.36664521199017,-301.37259911210265 C72.44365081389594,-301.9780098141334,72.44365081389594,-301.9780098141334,72.44365081389594,-303.08183986312036 L72.44365081389596,-320.3511755889368" stroke-width="0.3" stroke="black" fill="none" fill-opacity="0.2" />
<path d="M84.0,-48.74368670764579 L83.99999999999999,-288.5104452796696 C83.99999999999999,-289.6142753286566,83.99999999999999,-289.6142753286566,83.07700560190575,-290.21968603068734 L69.36664521199017,-299.2125888325802 C68.44365081389594,-299.8179995346109,68.44365081389594,-299.8179995346109,68.44365081389594,-300.9218295835979 L68.44365081389596,-320.3511755889368" stroke-width="0.3" stroke="black" fill="none" fill-opacity="0.2" />
<path d="M72.44365081389596,-320.3511755889368 C72.44365081389596,-321.4550056379238,72.44365081389596,-321.4550056379238,71.33982076490894,-321.4550056379238 L69.54748086288298,-321.4550056379238 C68.44365081389596,-321.4550056379238,68.44365081389596,-321.4550056379238,68.44365081389596,-320.3511755889368" stroke-width="0.3" stroke="black" fill="none" fill-opacity="0.2" />
<path d="M116.0,-48.74368670764579 L115.99999999999997,-230.10685839129133 C115.99999999999997,-231.21068844027835,115.99999999999997,-231.21068844027835,116.82257688027785,-231.94676455935775 L140.6332672424378,-253.25356392923462 C141.4558441227157,-253.98964004831402,141.4558441227157,-253.98964004831402,141.4558441227157,-255.09347009730104 L141.45584412271572,-275.8704552336453" stroke-width="0.3" stroke="black" fill="none" fill-opacity="0.2" />
<path d="M112.0,-48.74368670764579 L111.99999999999999,-231.89516019614334 C111.99999999999999,-232.99899024513036,111.99999999999999,-232.99899024513036,112.82257688027786,-233.73506636420976 L136.6332672424378,-255.04186573408663 C137.4558441227157,-255.77794185316603,137.4558441227157,-255.77794185316603,137.4558441227157,-256.88177190215305 L137.45584412271572,-275.8704552336453" stroke-width="0.3" stroke="black" fill="none" fill-opacity="0.2" />
<path d="M141.45584412271572,-275.8704552336453 C141.45584412271572,-276.9742852826323,141.45584412271572,-276.9742852826323,140.3520140737287,-276.9742852826323 L138.55967417170274,-276.9742852826323 C137.45584412271572,-276.9742852826323,137.45584412271572,-276.9742852826323,137.45584412271572,-275.8704552336453" stroke-width="0.3" stroke="black" fill="none" fill-opacity="0.2" />
<path d="M81.0,-48.74368670764579 L80.99999999999999,-220.51466167666746 C80.99999999999999,-221.61849172565448,80.99999999999999,-221.61849172565448,80.18250981868582,-222.36021308876977 L41.51240365368094,-257.4461927275859 C40.69491347236678,-258.1879140907012,40.69491347236678,-258.1879140907012,40.69491347236678,-259.2917441396882 L40.694913472366785,-292.26087857947186" stroke-width="0.3" stroke="black" fill="none" fill-opacity="0.2" />
<path d="M77.0,-48.74368670764579 L76.99999999999999,-218.74285477721529 C76.99999999999999,-219.8466848262023,76.99999999999999,-219.8466848262023,76.18250981868582,-220.5884061893176 L37.512403653680934,-255.67438582813378 C36.69491347236677,-256.41610719124907,36.69491347236677,-256.41610719124907,36.69491347236677,-257.51993724023606 L36.694913472366785,-292.26087857947186" stroke-width="0.3" stroke="black" fill="none" fill-opacity="0.2" />
<path d="M40.694913472366785,-292.26087857947186 C40.694913472366785,-293.36470862845886,40.694913472366785,-293.36470862845886,39.591083423379764,-293.36470862845886 L37.798743521353806,-293.36470862845886 C36.694913472366785,-293.36470862845886,36.694913472366785,-293.36470862845886,36.694913472366785,-292.26087857947186" stroke-width="0.3" stroke="black" fill="none" fill-opacity="0.2" />
<path d="M98.0,-48.74368670764579 L98.0,22.756313292354207 C98.0,23.584185829094473,97.32787253674026,24.256313292354207,96.5,24.256313292354207 C95.67212746325974,24.256313292354207,95.0,23.584185829094473,95.0,22.756313292354207 L95.0,-48.74368670764579" stroke-width="0.3" stroke="black" fill="none" fill-opacity="0.2" />
<path d="M102.0,-48.74368670764579 L102.0,22.756313292354207 C102.0,25.79184592706851,99.5355326347143,28.256313292354207,96.5,28.256313292354207 C93.4644673652857,28.256313292354207,91.0,25.79184592706851,91.0,22.756313292354207 L91.0,-48.74368670764579" stroke-width="0.3" stroke="black" fill="none" fill-opacity="0.2" />
<path d="M105.0,-48.74368670764579 L105.0,22.756313292354207 C105.0,27.447591000549043,101.19127770819483,31.256313292354207,96.5,31.256313292354207 C91.80872229180517,31.256313292354207,88.0,27.447591000549043,88.0,22.756313292354207 L88.0,-48.74368670764579" stroke-width="0.3" stroke="black" fill="none" fill-opacity="0.2" />
<path d="M109.0,-48.74368670764579 L109.0,22.756313292354207 C109.0,29.65525109852308,103.39893780616887,35.25631329235421,96.5,35.25631329235421 C89.60106219383113,35.25631329235421,84.0,29.65525109852308,84.0,22.756313292354207 L84.0,-48.74368670764579" stroke-width="0.3" stroke="black" fill="none" fill-opacity="0.2" />
<path d="M112.0,-48.74368670764579 L112.0,22.756313292354207 C112.0,31.310996172003613,105.0546828796494,38.25631329235421,96.5,38.25631329235421 C87.9453171203506,38.25631329235421,81.0,31.310996172003613,81.0,22.756313292354207 L81.0,-48.74368670764579" stroke-width="0.3" stroke="black" fill="none" fill-opacity="0.2" />
<path d="M116.0,-48.74368670764579 L116.0,22.756313292354207 C116.0,33.518656269977654,107.26234297762345,42.25631329235421,96.5,42.25631329235421 C85.73765702237655,42.25631329235421,77.0,33.518656269977654,77.0,22.756313292354207 L77.0,-48.74368670764579" stroke-width="0.3" stroke="black" fill="none" fill-opacity="0.2" />
<path d="M376.8893571891069,-48.74368670764579 L376.8893571891069,-387.80262090344877 C376.8893571891069,-388.90645095243576,376.8893571891069,-388.90645095243576,377.98138053564134,-389.0674658202909 L395.59632371579573,-391.6647250798383 C396.6883470623302,-391.8257399476935,396.6883470623302,-391.8257399476935,396.6883470623302,-392.92956999668047 L396.6883470623302,-397.1810730220684" stroke-width="0.3" stroke="black" fill="none" fill-opacity="0.2" />
<path d="M372.8893571891069,-48.74368670764579 L372.8893571891069,-391.25608253180644 C372.8893571891069,-392.35991258079343,372.8893571891069,-392.35991258079343,373.98138053564134,-392.5209274486486 L391.59632371579573,-395.118186708196 C392.6883470623302,-395.27920157605115,392.6883470623302,-395.27920157605115,392.6883470623302,-396.38303162503814 L392.6883470623302,-397.1810730220684" stroke-width="0.3" stroke="black" fill="none" fill-opacity="0.2" />
<path d="M396.6883470623302,-397.1810730220684 C396.6883470623302,-398.2849030710554,396.6883470623302,-398.2849030710554,395.5845170133432,-398.2849030710554 L393.7921771113172,-398.2849030710554 C392.6883470623302,-398.2849030710554,392.6883470623302,-398.2849030710554,392.6883470623302,-397.1810730220684" stroke-width="0.3" stroke="black" fill="none" fill-opacity="0.2" />
<path d="M369.8893571891069,-48.74368670764579 L369.8893571891069,-347.2030988367115 C369.8893571891069,-348.3069288856985,369.8893571891069,-348.3069288856985,368.84709603932555,-348.67042919203016 L350.4255216844783,-355.09516057773277 C349.383260534697,-355.45866088406444,349.383260534697,-355.45866088406444,349.383260534697,-356.56249093305144 L349.383260534697,-361.75756686251" stroke-width="0.3" stroke="black" fill="none" fill-opacity="0.2" />
<path d="M365.8893571891069,-48.74368670764579 L365.8893571891069,-344.3618541340352 C365.8893571891069,-345.4656841830222,365.8893571891069,-345.4656841830222,364.84709603932555,-345.82918448935385 L346.4255216844783,-352.2539158750565 C345.383260534697,-352.6174161813882,345.383260534697,-352.6174161813882,345.383260534697,-353.7212462303752 L345.383260534697,-361.75756686251" stroke-width="0.3" stroke="black" fill="none" fill-opacity="0.2" />
<path d="M349.383260534697,-361.75756686251 C349.383260534697,-362.86139691149697,349.383260534697,-362.86139691149697,348.27943048571,-362.86139691149697 L346.487090583684,-362.86139691149697 C345.383260534697,-362.86139691149697,345.383260534697,-362.86139691149697,345.383260534697,-361.75756686251" stroke-width="0.3" stroke="black" fill="none" fill-opacity="0.2" />
<path d="M383.8893571891069,-48.74368670764579 L383.8893571891069,-329.75421454589264 C383.8893571891069,-330.85804459487963,383.8893571891069,-330.85804459487963,384.90669046296694,-331.2863829972485 L407.620761256776,-340.8499243116868 C408.63809453063607,-341.27826271405564,408.63809453063607,-341.27826271405564,408.63809453063607,-342.38209276304264 L408.63809453063607,-357.9456503505173" stroke-width="0.3" stroke="black" fill="none" fill-opacity="0.2" />
<path d="M379.8893571891069,-48.74368670764579 L379.8893571891069,-332.41014515968317 C379.8893571891069,-333.51397520867016,379.8893571891069,-333.51397520867016,380.90669046296694,-333.942313611039 L403.620761256776,-343.5058549254773 C404.63809453063607,-343.9341933278462,404.63809453063607,-343.9341933278462,404.63809453063607,-345.03802337683317 L404.63809453063607,-357.9456503505173" stroke-width="0.3" stroke="black" fill="none" fill-opacity="0.2" />
<path d="M408.63809453063607,-357.9456503505173 C408.63809453063607,-359.0494803995043,408.63809453063607,-359.0494803995043,407.5342644816491,-359.0494803995043 L405.74192457962306,-359.0494803995043 C404.63809453063607,-359.0494803995043,404.63809453063607,-359.0494803995043,404.63809453063607,-357.9456503505173" stroke-width="0.3" stroke="black" fill="none" fill-opacity="0.2" />
<path d="M362.8893571891069,-48.74368670764579 L362.8893571891069,-318.10666818262035 C362.8893571891069,-319.21049823160735,362.8893571891069,-319.21049823160735,361.89578903747366,-319.69139645899736 L329.9417998437858,-335.15748878092325 C328.9482316921526,-335.63838700831326,328.9482316921526,-335.63838700831326,328.9482316921526,-336.74221705730025 L328.9482316921526,-348.68346935773536" stroke-width="0.3" stroke="black" fill="none" fill-opacity="0.2" />
<path d="M358.8893571891069,-48.74368670764579 L358.8893571891069,-315.5988107374194 C358.8893571891069,-316.7026407864064,358.8893571891069,-316.7026407864064,357.89578903747366,-317.1835390137964 L325.9417998437858,-332.64963133572223 C324.9482316921526,-333.13052956311225,324.9482316921526,-333.13052956311225,324.9482316921526,-334.23435961209924 L324.9482316921526,-348.68346935773536" stroke-width="0.3" stroke="black" fill="none" fill-opacity="0.2" />
<path d="M328.9482316921526,-348.68346935773536 C328.9482316921526,-349.78729940672235,328.9482316921526,-349.78729940672235,327.8444016431656,-349.78729940672235 L326.0520617411396,-349.78729940672235 C324.9482316921526,-349.78729940672235,324.9482316921526,-349.78729940672235,324.9482316921526,-348.68346935773536" stroke-width="0.3" stroke="black" fill="none" fill-opacity="0.2" />
<path d="M372.8893571891069,-48.74368670764579 L372.8893571891069,22.756313292354207 C372.8893571891069,23.584185829094473,372.2172297258471,24.256313292354207,371.3893571891069,24.256313292354207 C370.56148465236663,24.256313292354207,369.8893571891069,23.584185829094473,369.8893571891069,22.756313292354207 L369.8893571891069,-48.74368670764579" stroke-width="0.3" stroke="black" fill="none" fill-opacity="0.2" />
<path d="M376.8893571891069,-48.74368670764579 L376.8893571891069,22.756313292354207 C376.8893571891069,25.79184592706851,374.42488982382116,28.256313292354207,371.3893571891069,28.256313292354207 C368.3538245543926,28.256313292354207,365.8893571891069,25.79184592706851,365.8893571891069,22.756313292354207 L365.8893571891069,-48.74368670764579" stroke-width="0.3" stroke="black" fill="none" fill-opacity="0.2" />
<path d="M379.8893571891069,-48.74368670764579 L379.8893571891069,22.756313292354207 C379.8893571891069,27.447591000549043,376.0806348973017,31.256313292354207,371.3893571891069,31.256313292354207 C366.69807948091204,31.256313292354207,362.8893571891069,27.447591000549043,362.8893571891069,22.756313292354207 L362.8893571891069,-48.74368670764579" stroke-width="0.3" stroke="black" fill="none" fill-opacity="0.2" />
<path d="M383.8893571891069,-48.74368670764579 L383.8893571891069,22.756313292354207 C383.8893571891069,29.65525109852308,378.28829499527575,35.25631329235421,371.3893571891069,35.25631329235421 C364.490419382938,35.25631329235421,358.8893571891069,29.65525109852308,358.8893571891069,22.756313292354207 L358.8893571891069,-48.74368670764579" stroke-width="0.3" stroke="black" fill="none" fill-opacity="0.2" />
<path d="M651.7787143782137,-48.74368670764579 L651.7787143782137,-390.0225131568424 C651.7787143782137,-391.1263432058294,651.7787143782137,-391.1263432058294,652.8719113107957,-391.2791870596155 L666.9489734129224,-393.24735249948077 C668.0421703455044,-393.40019635326684,668.0421703455044,-393.40019635326684,668.0421703455044,-394.5040264022538 L668.0421703455044,-398.3663495530707" stroke-width="0.3" stroke="black" fill="none" fill-opacity="0.2" />
<path d="M647.7787143782137,-48.74368670764579 L647.7787143782137,-393.50216505434616 C647.7787143782137,-394.60599510333316,647.7787143782137,-394.60599510333316,648.8719113107957,-394.7588389571192 L662.9489734129224,-396.7270043969845 C664.0421703455044,-396.8798482507706,664.0421703455044,-396.8798482507706,664.0421703455044,-397.98367829975757 L664.0421703455044,-398.3663495530707" stroke-width="0.3" stroke="black" fill="none" fill-opacity="0.2" />
<path d="M668.0421703455044,-398.3663495530707 C668.0421703455044,-399.47017960205767,668.0421703455044,-399.47017960205767,666.9383402965174,-399.47017960205767 L665.1460003944914,-399.47017960205767 C664.0421703455044,-399.47017960205767,664.0421703455044,-399.47017960205767,664.0421703455044,-398.3663495530707" stroke-width="0.3" stroke="black" fill="none" fill-opacity="0.2" />
<path d="M644.7787143782137,-48.74368670764579 L644.7787143782137,-344.55181217096924 C644.7787143782137,-345.65564221995623,644.7787143782137,-345.65564221995623,643.7413812326653,-346.032975921331 L626.7241644317254,-352.2230503734497 C625.6868312861769,-352.6003840748245,625.6868312861769,-352.6003840748245,625.6868312861769,-353.7042141238115 L625.6868312861769,-361.34739494887435" stroke-width="0.3" stroke="black" fill="none" fill-opacity="0.2" />
<path d="M640.7787143782137,-48.74368670764579 L640.7787143782137,-341.75041186585077 C640.7787143782137,-342.85424191483776,640.7787143782137,-342.85424191483776,639.7413812326653,-343.2315756162125 L622.7241644317254,-349.42165006833125 C621.6868312861769,-349.798983769706,621.6868312861769,-349.798983769706,621.6868312861769,-350.902813818693 L621.6868312861769,-361.34739494887435" stroke-width="0.3" stroke="black" fill="none" fill-opacity="0.2" />
<path d="M625.6868312861769,-361.34739494887435 C625.6868312861769,-362.45122499786135,625.6868312861769,-362.45122499786135,624.5830012371899,-362.45122499786135 L622.7906613351639,-362.45122499786135 C621.6868312861769,-362.45122499786135,621.6868312861769,-362.45122499786135,621.6868312861769,-361.34739494887435" stroke-width="0.3" stroke="black" fill="none" fill-opacity="0.2" />
<path d="M658.7787143782137,-48.74368670764579 L658.7787143782137,-311.28588548192386 C658.7787143782137,-312.38971553091085,658.7787143782137,-312.38971553091085,659.7560999210995,-312.90270508012674 L679.0145322709245,-323.0106656507051 C679.9919178138102,-323.523655199921,679.9919178138102,-323.523655199921,679.9919178138102,-324.627485248908 L679.9919178138102,-343.1785867624702" stroke-width="0.3" stroke="black" fill="none" fill-opacity="0.2" />
<path d="M654.7787143782137,-48.74368670764579 L654.7787143782137,-313.7039302507331 C654.7787143782137,-314.8077602997201,654.7787143782137,-314.8077602997201,655.7560999210995,-315.320749848936 L675.0145322709245,-325.4287104195144 C675.9919178138102,-325.9416999687303,675.9919178138102,-325.9416999687303,675.9919178138102,-327.0455300177173 L675.9919178138102,-343.1785867624702" stroke-width="0.3" stroke="black" fill="none" fill-opacity="0.2" />
<path d="M679.9919178138102,-343.1785867624702 C679.9919178138102,-344.2824168114572,679.9919178138102,-344.2824168114572,678.8880877648232,-344.2824168114572 L677.0957478627972,-344.2824168114572 C675.9919178138102,-344.2824168114572,675.9919178138102,-344.2824168114572,675.9919178138102,-343.1785867624702" stroke-width="0.3" stroke="black" fill="none" fill-opacity="0.2" />
<path d="M637.7787143782137,-48.74368670764579 L637.7787143782137,-266.0213452709972 C637.7787143782137,-267.1251753199842,637.7787143782137,-267.1251753199842,636.8942817817443,-267.7856446677583 L606.8433418212885,-290.2268400679638 C605.9589092248191,-290.8873094157379,605.9589092248191,-290.8873094157379,605.9589092248191,-291.9911394647249 L605.9589092248191,-305.97396035982774" stroke-width="0.3" stroke="black" fill="none" fill-opacity="0.2" />
<path d="M633.7787143782137,-48.74368670764579 L633.7787143782137,-264.0161695098014 C633.7787143782137,-265.1199995587884,633.7787143782137,-265.1199995587884,632.8942817817443,-265.7804689065625 L602.8433418212885,-288.221664306768 C601.9589092248191,-288.8821336545421,601.9589092248191,-288.8821336545421,601.9589092248191,-289.9859637035291 L601.9589092248191,-305.97396035982774" stroke-width="0.3" stroke="black" fill="none" fill-opacity="0.2" />
<path d="M605.9589092248191,-305.97396035982774 C605.9589092248191,-307.07779040881474,605.9589092248191,-307.07779040881474,604.8550791758321,-307.07779040881474 L603.0627392738061,-307.07779040881474 C601.9589092248191,-307.07779040881474,601.9589092248191,-307.07779040881474,601.9589092248191,-305.97396035982774" stroke-width="0.3" stroke="black" fill="none" fill-opacity="0.2" />
<path d="M647.7787143782137,-48.74368670764579 L647.7787143782137,22.756313292354207 C647.7787143782137,23.584185829094473,647.106586914954,24.256313292354207,646.2787143782137,24.256313292354207 C645.4508418414734,24.256313292354207,644.7787143782137,23.584185829094473,644.7787143782137,22.756313292354207 L644.7787143782137,-48.74368670764579" stroke-width="0.3" stroke="black" fill="none" fill-opacity="0.2" />
<path d="M651.7787143782137,-48.74368670764579 L651.7787143782137,22.756313292354207 C651.7787143782137,25.79184592706851,649.314247012928,28.256313292354207,646.2787143782137,28.256313292354207 C643.2431817434995,28.256313292354207,640.7787143782137,25.79184592706851,640.7787143782137,22.756313292354207 L640.7787143782137,-48.74368670764579" stroke-width="0.3" stroke="black" fill="none" fill-opacity="0.2" />
<path d="M654.7787143782137,-48.74368670764579 L654.7787143782137,22.756313292354207 C654.7787143782137,27.447591000549043,650.9699920864086,31.256313292354207,646.2787143782137,31.256313292354207 C641.5874366700189,31.256313292354207,637.7787143782137,27.447591000549043,637.7787143782137,22.756313292354207 L637.7787143782137,-48.74368670764579" stroke-width="0.3" stroke="black" fill="none" fill-opacity="0.2" />
<path d="M658.7787143782137,-48.74368670764579 L658.7787143782137,22.756313292354207 C658.7787143782137,29.65525109852308,653.1776521843826,35.25631329235421,646.2787143782137,35.25631329235421 C639.3797765720449,35.25631329235421,633.7787143782137,29.65525109852308,633.7787143782137,22.756313292354207 L633.7787143782137,-48.74368670764579" stroke-width="0.3" stroke="black" fill="none" fill-opacity="0.2" />
<path d="M926.6680715673206,-48.74368670764579 L926.6680715673206,-379.5032788915116 C926.6680715673206,-380.6071089404986,926.6680715673206,-380.6071089404986,927.75397070791,-380.80525997762425 L942.5527351752083,-383.50568621222044 C943.6386343157977,-383.70383724934607,943.6386343157977,-383.70383724934607,943.6386343157977,-384.80766729833306 L943.6386343157977,-392.7172220609152" stroke-width="0.3" stroke="black" fill="none" fill-opacity="0.2" />
<path d="M922.6680715673206,-48.74368670764579 L922.6680715673206,-382.8394230250076 C922.6680715673206,-383.9432530739946,922.6680715673206,-383.9432530739946,923.75397070791,-384.1414041111202 L938.5527351752082,-386.8418303457164 C939.6386343157976,-387.03998138284203,939.6386343157976,-387.03998138284203,939.6386343157976,-388.143811431829 L939.6386343157977,-392.7172220609152" stroke-width="0.3" stroke="black" fill="none" fill-opacity="0.2" />
<path d="M943.6386343157977,-392.7172220609152 C943.6386343157977,-393.8210521099022,943.6386343157977,-393.8210521099022,942.5348042668107,-393.8210521099022 L940.7424643647847,-393.8210521099022 C939.6386343157977,-393.8210521099022,939.6386343157977,-393.8210521099022,939.6386343157977,-392.7172220609152" stroke-width="0.3" stroke="black" fill="none" fill-opacity="0.2" />
<path d="M919.6680715673206,-48.74368670764579 L919.6680715673206,-360.8506784301142 C919.6680715673206,-361.9545084791012,919.6680715673206,-361.9545084791012,918.605593890211,-362.25381093931617 L901.6386661523933,-367.0334343832962 C900.5761884752837,-367.33273684351116,900.5761884752837,-367.33273684351116,900.5761884752837,-368.43656689249815 L900.5761884752837,-375.54881963490357" stroke-width="0.3" stroke="black" fill="none" fill-opacity="0.2" />
<path d="M915.6680715673206,-48.74368670764579 L915.6680715673206,-357.82180504818746 C915.6680715673206,-358.92563509717445,915.6680715673206,-358.92563509717445,914.605593890211,-359.2249375573894 L897.6386661523933,-364.00456100136944 C896.5761884752837,-364.3038634615844,896.5761884752837,-364.3038634615844,896.5761884752837,-365.4076935105714 L896.5761884752837,-375.54881963490357" stroke-width="0.3" stroke="black" fill="none" fill-opacity="0.2" />
<path d="M900.5761884752837,-375.54881963490357 C900.5761884752837,-376.65264968389056,900.5761884752837,-376.65264968389056,899.4723584262968,-376.65264968389056 L897.6800185242707,-376.65264968389056 C896.5761884752837,-376.65264968389056,896.5761884752837,-376.65264968389056,896.5761884752837,-375.54881963490357" stroke-width="0.3" stroke="black" fill="none" fill-opacity="0.2" />
<path d="M933.6680715673206,-48.74368670764579 L933.6680715673206,-279.3525852518522 C933.6680715673206,-280.4564153008392,933.6680715673206,-280.4564153008392,934.5711130933827,-281.0912040682683 L948.3213792273626,-290.75688857900695 C949.2244207534247,-291.3916773464361,949.2244207534247,-291.3916773464361,949.2244207534247,-292.4955073954231 L949.2244207534246,-307.01122405386934" stroke-width="0.3" stroke="black" fill="none" fill-opacity="0.2" />
<path d="M929.6680715673206,-48.74368670764579 L929.6680715673206,-281.43019195329947 C929.6680715673206,-282.53402200228646,929.6680715673206,-282.53402200228646,930.5711130933827,-283.1688107697156 L944.3213792273625,-292.83449528045406 C945.2244207534246,-293.4692840478832,945.2244207534246,-293.4692840478832,945.2244207534246,-294.5731140968702 L945.2244207534246,-307.01122405386934" stroke-width="0.3" stroke="black" fill="none" fill-opacity="0.2" />
<path d="M949.2244207534246,-307.01122405386934 C949.2244207534246,-308.11505410285633,949.2244207534246,-308.11505410285633,948.1205907044376,-308.11505410285633 L946.3282508024116,-308.11505410285633 C945.2244207534246,-308.11505410285633,945.2244207534246,-308.11505410285633,945.2244207534246,-307.01122405386934" stroke-width="0.3" stroke="black" fill="none" fill-opacity="0.2" />
<path d="M912.6680715673206,-48.74368670764579 L912.6680715673206,-237.44536753568673 C912.6680715673206,-238.54919758467375,912.6680715673206,-238.54919758467375,911.8434207316117,-239.28294943387849 L896.5221596545523,-252.91539017199688 C895.6975088188434,-253.6491420212016,895.6975088188434,-253.6491420212016,895.6975088188434,-254.75297207018863 L895.6975088188434,-280.0028739164005" stroke-width="0.3" stroke="black" fill="none" fill-opacity="0.2" />
<path d="M908.6680715673206,-48.74368670764579 L908.6680715673206,-235.65028926130813 C908.6680715673206,-236.75411931029515,908.6680715673206,-236.75411931029515,907.8434207316117,-237.4878711594999 L892.5221596545523,-251.12031189761825 C891.6975088188434,-251.854063746823,891.6975088188434,-251.854063746823,891.6975088188434,-252.95789379581 L891.6975088188434,-280.0028739164005" stroke-width="0.3" stroke="black" fill="none" fill-opacity="0.2" />
<path d="M895.6975088188434,-280.0028739164005 C895.6975088188434,-281.1067039653875,895.6975088188434,-281.1067039653875,894.5936787698564,-281.1067039653875 L892.8013388678304,-281.1067039653875 C891.6975088188434,-281.1067039653875,891.6975088188434,-281.1067039653875,891.6975088188434,-280.0028739164005" stroke-width="0.3" stroke="black" fill="none" fill-opacity="0.2" />
<path d="M940.6680715673206,-48.74368670764579 L940.6680715673206,-158.43779424923486 C940.6680715673206,-159.54162429822188,940.6680715673206,-159.54162429822188,941.4533223115036,-160.3173962014297 L954.0249564468685,-172.73727687250192 C954.8102071910515,-173.51304877570973,954.8102071910515,-173.51304877570973,954.8102071910515,-174.61687882469676 L954.8102071910515,-204.2659236440893" stroke-width="0.3" stroke="black" fill="none" fill-opacity="0.2" />
<path d="M936.6680715673206,-48.74368670764579 L936.6680715673207,-160.10889433139033 C936.6680715673207,-161.21272438037735,936.6680715673207,-161.21272438037735,937.4533223115037,-161.98849628358516 L950.0249564468685,-174.40837695465726 C950.8102071910515,-175.18414885786507,950.8102071910515,-175.18414885786507,950.8102071910515,-176.2879789068521 L950.8102071910515,-204.2659236440893" stroke-width="0.3" stroke="black" fill="none" fill-opacity="0.2" />
<path d="M954.8102071910515,-204.2659236440893 C954.8102071910515,-205.36975369307632,954.8102071910515,-205.36975369307632,953.7063771420645,-205.36975369307632 L951.9140372400385,-205.36975369307632 C950.8102071910515,-205.36975369307632,950.8102071910515,-205.36975369307632,950.8102071910515,-204.2659236440893" stroke-width="0.3" stroke="black" fill="none" fill-opacity="0.2" />
<path d="M905.6680715673206,-48.74368670764579 L905.6680715673206,-110.14067557060605 C905.6680715673206,-111.24450561959307,905.6680715673206,-111.24450561959307,904.8312998160669,-111.96440409392861 L885.2916398829778,-128.7749278165469 C884.4548681317242,-129.49482629088243,884.4548681317242,-129.49482629088243,884.4548681317242,-130.59865633986945 L884.4548681317242,-166.48524751965942" stroke-width="0.3" stroke="black" fill="none" fill-opacity="0.2" />
<path d="M901.6680715673206,-48.74368670764579 L901.6680715673206,-108.30537664194925 C901.6680715673206,-109.40920669093627,901.6680715673206,-109.40920669093627,900.8312998160669,-110.12910516527181 L881.2916398829778,-126.93962888789011 C880.4548681317242,-127.65952736222565,880.4548681317242,-127.65952736222565,880.4548681317242,-128.76335741121267 L880.4548681317242,-166.48524751965942" stroke-width="0.3" stroke="black" fill="none" fill-opacity="0.2" />
<path d="M884.4548681317242,-166.48524751965942 C884.4548681317242,-167.58907756864645,884.4548681317242,-167.58907756864645,883.3510380827372,-167.58907756864645 L881.5586981807112,-167.58907756864645 C880.4548681317242,-167.58907756864645,880.4548681317242,-167.58907756864645,880.4548681317242,-166.48524751965942" stroke-width="0.3" stroke="black" fill="none" fill-opacity="0.2" />
<path d="M922.6680715673206,-48.74368670764579 L922.6680715673206,22.756313292354207 C922.6680715673206,23.584185829094473,921.9959441040609,24.256313292354207,921.1680715673206,24.256313292354207 C920.3401990305803,24.256313292354207,919.6680715673206,23.584185829094473,919.6680715673206,22.756313292354207 L919.6680715673206,-48.74368670764579" stroke-width="0.3" stroke="black" fill="none" fill-opacity="0.2" />
<path d="M926.6680715673206,-48.74368670764579 L926.6680715673206,22.756313292354207 C926.6680715673206,25.79184592706851,924.2036042020349,28.256313292354207,921.1680715673206,28.256313292354207 C918.1325389326063,28.256313292354207,915.6680715673206,25.79184592706851,915.6680715673206,22.756313292354207 L915.6680715673206,-48.74368670764579" stroke-width="0.3" stroke="black" fill="none" fill-opacity="0.2" />
<path d="M929.6680715673206,-48.74368670764579 L929.6680715673206,22.756313292354207 C929.6680715673206,27.447591000549043,925.8593492755155,31.256313292354207,921.1680715673206,31.256313292354207 C916.4767938591257,31.256313292354207,912.6680715673206,27.447591000549043,912.6680715673206,22.756313292354207 L912.6680715673206,-48.74368670764579" stroke-width="0.3" stroke="black" fill="none" fill-opacity="0.2" />
<path d="M933.6680715673206,-48.74368670764579 L933.6680715673206,22.756313292354207 C933.6680715673206,29.65525109852308,928.0670093734894,35.25631329235421,921.1680715673206,35.25631329235421 C914.2691337611517,35.25631329235421,908.6680715673206,29.65525109852308,908.6680715673206,22.756313292354207 L908.6680715673206,-48.74368670764579" stroke-width="0.3" stroke="black" fill="none" fill-opacity="0.2" />
<path d="M936.6680715673206,-48.74368670764579 L936.6680715673206,22.756313292354207 C936.6680715673206,31.310996172003613,929.7227544469699,38.25631329235421,921.1680715673206,38.25631329235421 C912.6133886876712,38.25631329235421,905.6680715673206,31.310996172003613,905.6680715673206,22.756313292354207 L905.6680715673206,-48.74368670764579" stroke-width="0.3" stroke="black" fill="none" fill-opacity="0.2" />
<path d="M940.6680715673206,-48.74368670764579 L940.6680715673206,22.756313292354207 C940.6680715673206,33.518656269977654,931.930414544944,42.25631329235421,921.1680715673206,42.25631329235421 C910.4057285896971,42.25631329235421,901.6680715673206,33.518656269977654,901.6680715673206,22.756313292354207 L901.6680715673206,-48.74368670764579" stroke-width="0.3" stroke="black" fill="none" fill-opacity="0.2" />
<path d="M1201.5574287564275,-48.74368670764579 L1201.5574287564275,-376.37968903296974 C1201.5574287564275,-377.48351908195673,1201.5574287564275,-377.48351908195673,1202.6409561366886,-377.6942539705518 L1220.9799980305763,-381.26100827769085 C1222.0635254108374,-381.47174316628593,1222.0635254108374,-381.47174316628593,1222.0635254108374,-382.5755732152729 L1222.0635254108374,-387.8482125149852" stroke-width="0.3" stroke="black" fill="none" fill-opacity="0.2" />
<path d="M1197.5574287564275,-48.74368670764579 L1197.5574287564275,-379.6766806057224 C1197.5574287564275,-380.7805106547094,1197.5574287564275,-380.7805106547094,1198.6409561366886,-380.9912455433045 L1216.9799980305763,-384.55799985044354 C1218.0635254108374,-384.7687347390386,1218.0635254108374,-384.7687347390386,1218.0635254108374,-385.8725647880256 L1218.0635254108374,-387.8482125149852" stroke-width="0.3" stroke="black" fill="none" fill-opacity="0.2" />
<path d="M1222.0635254108374,-387.8482125149852 C1222.0635254108374,-388.9520425639722,1222.0635254108374,-388.9520425639722,1220.9596953618504,-388.9520425639722 L1219.1673554598244,-388.9520425639722 C1218.0635254108374,-388.9520425639722,1218.0635254108374,-388.9520425639722,1218.0635254108374,-387.8482125149852" stroke-width="0.3" stroke="black" fill="none" fill-opacity="0.2" />
<path d="M1194.5574287564275,-48.74368670764579 L1194.5574287564275,-322.2693577428561 C1194.5574287564275,-323.37318779184307,1194.5574287564275,-323.37318779184307,1193.5641557290871,-323.85469528940126 L1178.5801390352908,-331.11847491796806 C1177.5868660079504,-331.59998241552626,1177.5868660079504,-331.59998241552626,1177.5868660079504,-332.70381246451325 L1177.5868660079504,-349.76147323491205" stroke-width="0.3" stroke="black" fill="none" fill-opacity="0.2" />
<path d="M1190.5574287564275,-48.74368670764579 L1190.5574287564275,-319.7632087413264 C1190.5574287564275,-320.8670387903134,1190.5574287564275,-320.8670387903134,1189.5641557290871,-321.3485462878716 L1174.5801390352908,-328.61232591643846 C1173.5868660079504,-329.09383341399666,1173.5868660079504,-329.09383341399666,1173.5868660079504,-330.19766346298366 L1173.5868660079504,-349.76147323491205" stroke-width="0.3" stroke="black" fill="none" fill-opacity="0.2" />
<path d="M1177.5868660079504,-349.76147323491205 C1177.5868660079504,-350.86530328389904,1177.5868660079504,-350.86530328389904,1176.4830359589635,-350.86530328389904 L1174.6906960569374,-350.86530328389904 C1173.5868660079504,-350.86530328389904,1173.5868660079504,-350.86530328389904,1173.5868660079504,-349.76147323491205" stroke-width="0.3" stroke="black" fill="none" fill-opacity="0.2" />
<path d="M1208.5574287564275,-48.74368670764579 L1208.5574287564275,-238.38088774651143 C1208.5574287564275,-239.48471779549845,1208.5574287564275,-239.48471779549845,1209.3845913256293,-240.2156369847102 L1222.5795085921432,-251.87527753089833 C1223.406671161345,-252.60619672011006,1223.406671161345,-252.60619672011006,1223.406671161345,-253.71002676909708 L1223.406671161345,-275.4090127459988" stroke-width="0.3" stroke="black" fill="none" fill-opacity="0.2" />
<path d="M1204.5574287564275,-48.74368670764579 L1204.5574287564275,-240.18421334977276 C1204.5574287564275,-241.28804339875978,1204.5574287564275,-241.28804339875978,1205.3845913256293,-242.01896258797152 L1218.5795085921432,-253.67860313415966 C1219.406671161345,-254.4095223233714,1219.406671161345,-254.4095223233714,1219.406671161345,-255.5133523723584 L1219.406671161345,-275.4090127459988" stroke-width="0.3" stroke="black" fill="none" fill-opacity="0.2" />
<path d="M1223.406671161345,-275.4090127459988 C1223.406671161345,-276.5128427949858,1223.406671161345,-276.5128427949858,1222.302841112358,-276.5128427949858 L1220.510501210332,-276.5128427949858 C1219.406671161345,-276.5128427949858,1219.406671161345,-276.5128427949858,1219.406671161345,-275.4090127459988" stroke-width="0.3" stroke="black" fill="none" fill-opacity="0.2" />
<path d="M1187.5574287564275,-48.74368670764579 L1187.5574287564275,-153.30869679294227 C1187.5574287564275,-154.4125268419293,1187.5574287564275,-154.4125268419293,1186.7684921178827,-155.18455000052515 L1173.4971229900548,-168.1714032056895 C1172.70818635151,-168.94342636428536,1172.70818635151,-168.94342636428536,1172.70818635151,-170.04725641327238 L1172.70818635151,-194.03235041526557" stroke-width="0.3" stroke="black" fill="none" fill-opacity="0.2" />
<path d="M1183.5574287564275,-48.74368670764579 L1183.5574287564275,-151.6263974843278 C1183.5574287564275,-152.73022753331483,1183.5574287564275,-152.73022753331483,1182.7684921178827,-153.5022506919107 L1169.4971229900548,-166.4891038970749 C1168.70818635151,-167.26112705567076,1168.70818635151,-167.26112705567076,1168.70818635151,-168.36495710465778 L1168.70818635151,-194.03235041526557" stroke-width="0.3" stroke="black" fill="none" fill-opacity="0.2" />
<path d="M1172.70818635151,-194.03235041526557 C1172.70818635151,-195.1361804642526,1172.70818635151,-195.1361804642526,1171.604356302523,-195.1361804642526 L1169.812016400497,-195.1361804642526 C1168.70818635151,-195.1361804642526,1168.70818635151,-195.1361804642526,1168.70818635151,-194.03235041526557" stroke-width="0.3" stroke="black" fill="none" fill-opacity="0.2" />
<path d="M1215.5574287564275,-48.74368670764579 L1215.5574287564275,-121.07972052457805 C1215.5574287564275,-122.18355057356507,1215.5574287564275,-122.18355057356507,1216.3783225199516,-122.92150328617892 L1229.585777397821,-134.79450998561904 C1230.406671161345,-135.53246269823288,1230.406671161345,-135.53246269823288,1230.406671161345,-136.6362927472199 L1230.406671161345,-162.18919783125466" stroke-width="0.3" stroke="black" fill="none" fill-opacity="0.2" />
<path d="M1211.5574287564275,-48.74368670764579 L1211.5574287564275,-122.86254481990466 C1211.5574287564275,-123.96637486889168,1211.5574287564275,-123.96637486889168,1212.3783225199516,-124.70432758150552 L1225.585777397821,-136.57733428094565 C1226.406671161345,-137.31528699355948,1226.406671161345,-137.31528699355948,1226.406671161345,-138.4191170425465 L1226.406671161345,-162.18919783125466" stroke-width="0.3" stroke="black" fill="none" fill-opacity="0.2" />
<path d="M1230.406671161345,-162.18919783125466 C1230.406671161345,-163.29302788024168,1230.406671161345,-163.29302788024168,1229.302841112358,-163.29302788024168 L1227.510501210332,-163.29302788024168 C1226.406671161345,-163.29302788024168,1226.406671161345,-163.29302788024168,1226.406671161345,-162.18919783125466" stroke-width="0.3" stroke="black" fill="none" fill-opacity="0.2" />
<path d="M1180.5574287564275,-48.74368670764579 L1180.5574287564275,-93.6923339423362 C1180.5574287564275,-94.79616399132323,1180.5574287564275,-94.79616399132323,1179.696947891187,-95.48754916443691 L1150.30521124946,-119.1034269218931 C1149.4447303842194,-119.79481209500679,1149.4447303842194,-119.79481209500679,1149.4447303842194,-120.89864214399381 L1149.4447303842194,-159.5096820271566" stroke-width="0.3" stroke="black" fill="none" fill-opacity="0.2" />
<path d="M1176.5574287564275,-48.74368670764579 L1176.5574287564275,-91.7750577190794 C1176.5574287564275,-92.87888776806642,1176.5574287564275,-92.87888776806642,1175.696947891187,-93.57027294118011 L1146.30521124946,-117.18615069863615 C1145.4447303842194,-117.87753587174984,1145.4447303842194,-117.87753587174984,1145.4447303842194,-118.98136592073686 L1145.4447303842194,-159.5096820271566" stroke-width="0.3" stroke="black" fill="none" fill-opacity="0.2" />
<path d="M1149.4447303842194,-159.5096820271566 C1149.4447303842194,-160.61351207614362,1149.4447303842194,-160.61351207614362,1148.3409003352324,-160.61351207614362 L1146.5485604332064,-160.61351207614362 C1145.4447303842194,-160.61351207614362,1145.4447303842194,-160.61351207614362,1145.4447303842194,-159.5096820271566" stroke-width="0.3" stroke="black" fill="none" fill-opacity="0.2" />
<path d="M1197.5574287564275,-48.74368670764579 L1197.5574287564275,22.756313292354207 C1197.5574287564275,23.584185829094473,1196.8853012931677,24.256313292354207,1196.0574287564275,24.256313292354207 C1195.2295562196873,24.256313292354207,1194.5574287564275,23.584185829094473,1194.5574287564275,22.756313292354207 L1194.5574287564275,-48.74368670764579" stroke-width="0.3" stroke="black" fill="none" fill-opacity="0.2" />
<path d="M1201.5574287564275,-48.74368670764579 L1201.5574287564275,22.756313292354207 C1201.5574287564275,25.79184592706851,1199.092961391142,28.256313292354207,1196.0574287564275,28.256313292354207 C1193.021896121713,28.256313292354207,1190.5574287564275,25.79184592706851,1190.5574287564275,22.756313292354207 L1190.5574287564275,-48.74368670764579" stroke-width="0.3" stroke="black" fill="none" fill-opacity="0.2" />
<path d="M1204.5574287564275,-48.74368670764579 L1204.5574287564275,22.756313292354207 C1204.5574287564275,27.447591000549043,1200.7487064646223,31.256313292354207,1196.0574287564275,31.256313292354207 C1191.3661510482327,31.256313292354207,1187.5574287564275,27.447591000549043,1187.5574287564275,22.756313292354207 L1187.5574287564275,-48.74368670764579" stroke-width="0.3" stroke="black" fill="none" fill-opacity="0.2" />
<path d="M1208.5574287564275,-48.74368670764579 L1208.5574287564275,22.756313292354207 C1208.5574287564275,29.65525109852308,1202.9563665625965,35.25631329235421,1196.0574287564275,35.25631329235421 C1189.1584909502585,35.25631329235421,1183.5574287564275,29.65525109852308,1183.5574287564275,22.756313292354207 L1183.5574287564275,-48.74368670764579" stroke-width="0.3" stroke="black" fill="none" fill-opacity="0.2" />
<path d="M1211.5574287564275,-48.74368670764579 L1211.5574287564275,22.756313292354207 C1211.5574287564275,31.310996172003613,1204.6121116360769,38.25631329235421,1196.0574287564275,38.25631329235421 C1187.5027458767781,38.25631329235421,1180.5574287564275,31.310996172003613,1180.5574287564275,22.756313292354207 L1180.5574287564275,-48.74368670764579" stroke-width="0.3" stroke="black" fill="none" fill-opacity="0.2" />
<path d="M1215.5574287564275,-48.74368670764579 L1215.5574287564275,22.756313292354207 C1215.5574287564275,33.518656269977654,1206.8197717340508,42.25631329235421,1196.0574287564275,42.25631329235421 C1185.2950857788042,42.25631329235421,1176.5574287564275,33.518656269977654,1176.5574287564275,22.756313292354207 L1176.5574287564275,-48.74368670764579" stroke-width="0.3" stroke="black" fill="none" fill-opacity="0.2" />
<path d="M102.0,-598.7436867076458 L101.99999999999996,-936.0887639732616 C101.99999999999996,-937.1925940222486,101.99999999999996,-937.1925940222486,103.09074779971618,-937.3620343198785 L117.17270816757433,-939.5495716741259 C118.26345596729055,-939.7190119717558,118.26345596729055,-939.7190119717558,118.26345596729055,-940.8228420207428 L118.2634559672906,-945.2751340229693" stroke-width="0.3" stroke="black" fill="none" fill-opacity="0.2" />
<path d="M98.0,-598.7436867076458 L97.99999999999994,-939.5153663522909 C97.99999999999994,-940.6191964012779,97.99999999999994,-940.6191964012779,99.09074779971617,-940.7886366989078 L113.17270816757431,-942.9761740531553 C114.26345596729054,-943.1456143507852,114.26345596729054,-943.1456143507852,114.26345596729054,-944.2494443997722 L114.2634559672906,-945.2751340229693" stroke-width="0.3" stroke="black" fill="none" fill-opacity="0.2" />
<path d="M118.2634559672906,-945.2751340229693 C118.2634559672906,-946.3789640719563,118.2634559672906,-946.3789640719563,117.15962591830358,-946.3789640719563 L115.36728601627762,-946.3789640719563 C114.2634559672906,-946.3789640719563,114.2634559672906,-946.3789640719563,114.2634559672906,-945.2751340229693" stroke-width="0.3" stroke="black" fill="none" fill-opacity="0.2" />
<path d="M95.0,-598.7436867076458 L94.99999999999994,-923.5402274385898 C94.99999999999994,-924.6440574875768,94.99999999999994,-924.6440574875768,93.92219407707587,-924.8823328945253 L74.86460248732759,-929.0954804519132 C73.78679656440352,-929.3337558588618,73.78679656440352,-929.3337558588618,73.78679656440352,-930.4375859078488 L73.78679656440357,-936.9643359215175" stroke-width="0.3" stroke="black" fill="none" fill-opacity="0.2" />
<path d="M91.0,-598.7436867076458 L90.99999999999994,-920.3279435806933 C90.99999999999994,-921.4317736296803,90.99999999999994,-921.4317736296803,89.92219407707587,-921.6700490366288 L70.8646024873276,-925.8831965940168 C69.78679656440353,-926.1214720009654,69.78679656440353,-926.1214720009654,69.78679656440353,-927.2253020499523 L69.78679656440357,-936.9643359215175" stroke-width="0.3" stroke="black" fill="none" fill-opacity="0.2" />
<path d="M73.78679656440357,-936.9643359215175 C73.78679656440357,-938.0681659705045,73.78679656440357,-938.0681659705045,72.68296651541655,-938.0681659705045 L70.8906266133906,-938.0681659705045 C69.78679656440357,-938.0681659705045,69.78679656440357,-938.0681659705045,69.78679656440357,-936.9643359215175" stroke-width="0.3" stroke="black" fill="none" fill-opacity="0.2" />
<path d="M109.0,-598.7436867076458 L108.99999999999994,-914.1952062407059 C108.99999999999994,-915.2990362896929,108.99999999999994,-915.2990362896929,110.07011545968349,-915.5697643451156 L123.48623372642044,-918.963902404525 C124.55634918610399,-919.2346304599477,124.55634918610399,-919.2346304599477,124.55634918610399,-920.3384605089346 L124.55634918610404,-929.2452002510469" stroke-width="0.3" stroke="black" fill="none" fill-opacity="0.2" />
<path d="M105.0,-598.7436867076458 L104.99999999999994,-917.3092701896958 C104.99999999999994,-918.4131002386828,104.99999999999994,-918.4131002386828,106.07011545968349,-918.6838282941054 L119.48623372642044,-922.077966353515 C120.55634918610399,-922.3486944089376,120.55634918610399,-922.3486944089376,120.55634918610399,-923.4525244579246 L120.55634918610404,-929.2452002510469" stroke-width="0.3" stroke="black" fill="none" fill-opacity="0.2" />
<path d="M124.55634918610404,-929.2452002510469 C124.55634918610404,-930.3490303000339,124.55634918610404,-930.3490303000339,123.45251913711702,-930.3490303000339 L121.66017923509106,-930.3490303000339 C120.55634918610404,-930.3490303000339,120.55634918610404,-930.3490303000339,120.55634918610404,-929.2452002510469" stroke-width="0.3" stroke="black" fill="none" fill-opacity="0.2" />
<path d="M88.0,-598.7436867076458 L87.99999999999994,-914.8734730969221 C87.99999999999994,-915.9773031459091,87.99999999999994,-915.9773031459091,86.93242103640452,-916.2578667457135 L70.68280265274512,-920.5283250299542 C69.6152236891497,-920.8088886297586,69.6152236891497,-920.8088886297586,69.6152236891497,-921.9127186787456 L69.61522368914976,-925.6133403522776" stroke-width="0.3" stroke="black" fill="none" fill-opacity="0.2" />
<path d="M84.0,-598.7436867076458 L83.99999999999996,-911.7888621135434 C83.99999999999996,-912.8926921625304,83.99999999999996,-912.8926921625304,82.93242103640453,-913.1732557623347 L66.68280265274514,-917.4437140465755 C65.61522368914972,-917.7242776463798,65.61522368914972,-917.7242776463798,65.61522368914972,-918.8281076953668 L65.61522368914976,-925.6133403522776" stroke-width="0.3" stroke="black" fill="none" fill-opacity="0.2" />
<path d="M69.61522368914976,-925.6133403522776 C69.61522368914976,-926.7171704012646,69.61522368914976,-926.7171704012646,68.51139364016274,-926.7171704012646 L66.71905373813678,-926.7171704012646 C65.61522368914976,-926.7171704012646,65.61522368914976,-926.7171704012646,65.61522368914976,-925.6133403522776" stroke-width="0.3" stroke="black" fill="none" fill-opacity="0.2" />
<path d="M116.0,-598.7436867076458 L115.99999999999994,-906.6301518337937 C115.99999999999994,-907.7339818827807,115.99999999999994,-907.7339818827807,117.06169494041997,-908.0360491443851 L138.272828838736,-914.0709174368292 C139.33452377915603,-914.3729846984336,139.33452377915603,-914.3729846984336,139.33452377915603,-915.4768147474206 L139.3345237791561,-921.2225549059114" stroke-width="0.3" stroke="black" fill="none" fill-opacity="0.2" />
<path d="M112.0,-598.7436867076458 L111.99999999999994,-909.6508417018848 C111.99999999999994,-910.7546717508718,111.99999999999994,-910.7546717508718,113.06169494041997,-911.0567390124762 L134.272828838736,-917.0916073049203 C135.33452377915603,-917.3936745665247,135.33452377915603,-917.3936745665247,135.33452377915603,-918.4975046155117 L135.3345237791561,-921.2225549059114" stroke-width="0.3" stroke="black" fill="none" fill-opacity="0.2" />
<path d="M139.3345237791561,-921.2225549059114 C139.3345237791561,-922.3263849548983,139.3345237791561,-922.3263849548983,138.23069373016907,-922.3263849548983 L136.4383538281431,-922.3263849548983 C135.3345237791561,-922.3263849548983,135.3345237791561,-922.3263849548983,135.3345237791561,-921.2225549059114" stroke-width="0.3" stroke="black" fill="none" fill-opacity="0.2" />
<path d="M81.0,-598.7436867076458 L80.99999999999994,-873.3093720725147 C80.99999999999994,-874.4132021215017,80.99999999999994,-874.4132021215017,79.9971366470989,-874.874402590338 L50.18305819950635,-888.5854100951731 C49.18019484660531,-889.0466105640094,49.18019484660531,-889.0466105640094,49.18019484660531,-890.1504406129964 L49.18019484660536,-901.105728752533" stroke-width="0.3" stroke="black" fill="none" fill-opacity="0.2" />
<path d="M77.0,-598.7436867076458 L76.99999999999994,-870.746193038036 C76.99999999999994,-871.850023087023,76.99999999999994,-871.850023087023,75.9971366470989,-872.3112235558593 L46.18305819950635,-886.0222310606943 C45.18019484660531,-886.4834315295305,45.18019484660531,-886.4834315295305,45.18019484660531,-887.5872615785175 L45.18019484660536,-901.105728752533" stroke-width="0.3" stroke="black" fill="none" fill-opacity="0.2" />
<path d="M49.18019484660536,-901.105728752533 C49.18019484660536,-902.20955880152,49.18019484660536,-902.20955880152,48.07636479761834,-902.20955880152 L46.28402489559238,-902.20955880152 C45.18019484660536,-902.20955880152,45.18019484660536,-902.20955880152,45.18019484660536,-901.105728752533" stroke-width="0.3" stroke="black" fill="none" fill-opacity="0.2" />
<path d="M98.0,-598.7436867076458 L98.0,-527.2436867076458 C98.0,-526.4158141709055,97.32787253674026,-525.7436867076458,96.5,-525.7436867076458 C95.67212746325974,-525.7436867076458,95.0,-526.4158141709055,95.0,-527.2436867076458 L95.0,-598.7436867076458" stroke-width="0.3" stroke="black" fill="none" fill-opacity="0.2" />
<path d="M102.0,-598.7436867076458 L102.0,-527.2436867076458 C102.0,-524.2081540729315,99.5355326347143,-521.7436867076458,96.5,-521.7436867076458 C93.4644673652857,-521.7436867076458,91.0,-524.2081540729315,91.0,-527.2436867076458 L91.0,-598.7436867076458" stroke-width="0.3" stroke="black" fill="none" fill-opacity="0.2" />
<path d="M105.0,-598.7436867076458 L105.0,-527.2436867076458 C105.0,-522.5524089994509,101.19127770819483,-518.7436867076458,96.5,-518.7436867076458 C91.80872229180517,-518.7436867076458,88.0,-522.5524089994509,88.0,-527.2436867076458 L88.0,-598.7436867076458" stroke-width="0.3" stroke="black" fill="none" fill-opacity="0.2" />
<path d="M109.0,-598.7436867076458 L109.0,-527.2436867076458 C109.0,-520.3447489014769,103.39893780616887,-514.7436867076458,96.5,-514.7436867076458 C89.60106219383113,-514.7436867076458,84.0,-520.3447489014769,84.0,-527.2436867076458 L84.0,-598.7436867076458" stroke-width="0.3" stroke="black" fill="none" fill-opacity="0.2" />
<path d="M112.0,-598.7436867076458 L112.0,-527.2436867076458 C112.0,-518.6890038279964,105.0546828796494,-511.7436867076458,96.5,-511.7436867076458 C87.9453171203506,-511.7436867076458,81.0,-518.6890038279964,81.0,-527.2436867076458 L81.0,-598.7436867076458" stroke-width="0.3" stroke="black" fill="none" fill-opacity="0.2" />
<path d="M116.0,-598.7436867076458 L116.0,-527.2436867076458 C116.0,-516.4813437300223,107.26234297762345,-507.7436867076458,96.5,-507.7436867076458 C85.73765702237655,-507.7436867076458,77.0,-516.4813437300223,77.0,-527.2436867076458 L77.0,-598.7436867076458" stroke-width="0.3" stroke="black" fill="none" fill-opacity="0.2" />
<path d="M376.8893571891069,-598.7436867076458 L376.8893571891068,-924.5228465203028 C376.8893571891068,-925.6266765692898,376.8893571891068,-925.6266765692898,377.9709260510506,-925.8472430534173 L393.4854578568267,-929.0111523093984 C394.5670267187705,-929.2317187935259,394.5670267187705,-929.2317187935259,394.5670267187705,-930.3355488425129 L394.56702671877053,-936.8737875133208" stroke-width="0.3" stroke="black" fill="none" fill-opacity="0.2" />
<path d="M372.8893571891069,-598.7436867076458 L372.8893571891069,-927.789447828599 C372.8893571891069,-928.893277877586,372.8893571891069,-928.893277877586,373.97092605105064,-929.1138443617135 L389.4854578568267,-932.2777536176947 C390.5670267187705,-932.4983201018222,390.5670267187705,-932.4983201018222,390.5670267187705,-933.6021501508092 L390.56702671877053,-936.8737875133208" stroke-width="0.3" stroke="black" fill="none" fill-opacity="0.2" />
<path d="M394.56702671877053,-936.8737875133208 C394.56702671877053,-937.9776175623078,394.56702671877053,-937.9776175623078,393.46319666978354,-937.9776175623078 L391.6708567677575,-937.9776175623078 C390.56702671877053,-937.9776175623078,390.56702671877053,-937.9776175623078,390.56702671877053,-936.8737875133208" stroke-width="0.3" stroke="black" fill="none" fill-opacity="0.2" />
<path d="M369.8893571891069,-598.7436867076458 L369.8893571891068,-871.244325265133 C369.8893571891068,-872.34815531412,369.8893571891068,-872.34815531412,368.89674537430045,-872.8310244083408 L351.08297913068986,-881.4967656804109 C350.0903673158835,-881.9796347746317,350.0903673158835,-881.9796347746317,350.0903673158835,-883.0834648236187 L350.09036731588355,-892.6259458275397" stroke-width="0.3" stroke="black" fill="none" fill-opacity="0.2" />
<path d="M365.8893571891069,-598.7436867076458 L365.8893571891068,-868.7419937574734 C365.8893571891068,-869.8458238064604,365.8893571891068,-869.8458238064604,364.89674537430045,-870.3286929006812 L347.08297913068986,-878.9944341727512 C346.0903673158835,-879.477303266972,346.0903673158835,-879.477303266972,346.0903673158835,-880.5811333159589 L346.09036731588355,-892.6259458275397" stroke-width="0.3" stroke="black" fill="none" fill-opacity="0.2" />
<path d="M350.09036731588355,-892.6259458275397 C350.09036731588355,-893.7297758765267,350.09036731588355,-893.7297758765267,348.98653726689656,-893.7297758765267 L347.19419736487055,-893.7297758765267 C346.09036731588355,-893.7297758765267,346.09036731588355,-893.7297758765267,346.09036731588355,-892.6259458275397" stroke-width="0.3" stroke="black" fill="none" fill-opacity="0.2" />
<path d="M383.8893571891069,-598.7436867076458 L383.8893571891068,-864.0267554328325 C383.8893571891068,-865.1305854818195,383.8893571891068,-865.1305854818195,384.8689788134554,-865.6392919297394 L397.75897796967575,-872.3329229414203 C398.7385995940243,-872.8416293893403,398.7385995940243,-872.8416293893403,398.7385995940243,-873.9454594383272 L398.7385995940244,-886.9335657851138" stroke-width="0.3" stroke="black" fill="none" fill-opacity="0.2" />
<path d="M379.8893571891069,-598.7436867076458 L379.8893571891068,-866.456769578193 C379.8893571891068,-867.56059962718,379.8893571891068,-867.56059962718,380.8689788134554,-868.0693060750999 L393.75897796967575,-874.7629370867809 C394.7385995940243,-875.2716435347008,394.7385995940243,-875.2716435347008,394.7385995940243,-876.3754735836878 L394.7385995940244,-886.9335657851138" stroke-width="0.3" stroke="black" fill="none" fill-opacity="0.2" />
<path d="M398.7385995940244,-886.9335657851138 C398.7385995940244,-888.0373958341008,398.7385995940244,-888.0373958341008,397.6347695450374,-888.0373958341008 L395.84242964301137,-888.0373958341008 C394.7385995940244,-888.0373958341008,394.7385995940244,-888.0373958341008,394.7385995940244,-886.9335657851138" stroke-width="0.3" stroke="black" fill="none" fill-opacity="0.2" />
<path d="M362.8893571891069,-598.7436867076458 L362.8893571891068,-771.4531173884875 C362.8893571891068,-772.5569474374745,362.8893571891068,-772.5569474374745,362.08571360470825,-773.3136493380283 L348.8437583685879,-785.78212776397 C348.0401147841893,-786.5388296645239,348.0401147841893,-786.5388296645239,348.0401147841893,-787.6426597135109 L348.04011478418937,-823.8779463388722" stroke-width="0.3" stroke="black" fill="none" fill-opacity="0.2" />
<path d="M358.8893571891069,-598.7436867076458 L358.8893571891068,-769.7253457485608 C358.8893571891068,-770.8291757975478,358.8893571891068,-770.8291757975478,358.08571360470825,-771.5858776981016 L344.8437583685879,-784.0543561240434 C344.0401147841893,-784.8110580245972,344.0401147841893,-784.8110580245972,344.0401147841893,-785.9148880735842 L344.04011478418937,-823.8779463388722" stroke-width="0.3" stroke="black" fill="none" fill-opacity="0.2" />
<path d="M348.04011478418937,-823.8779463388722 C348.04011478418937,-824.9817763878592,348.04011478418937,-824.9817763878592,346.9362847352024,-824.9817763878592 L345.14394483317636,-824.9817763878592 C344.04011478418937,-824.9817763878592,344.04011478418937,-824.9817763878592,344.04011478418937,-823.8779463388722" stroke-width="0.3" stroke="black" fill="none" fill-opacity="0.2" />
<path d="M390.8893571891069,-598.7436867076458 L390.8893571891068,-765.8696204447997 C390.8893571891068,-766.9734504937867,390.8893571891068,-766.9734504937867,391.6938668303977,-767.729231556077 L414.12647810815855,-788.8031154616166 C414.93098774944946,-789.5588965239069,414.93098774944946,-789.5588965239069,414.93098774944946,-790.6627265728939 L414.9309877494495,-828.5702755273217" stroke-width="0.3" stroke="black" fill="none" fill-opacity="0.2" />
<path d="M386.8893571891069,-598.7436867076458 L386.8893571891068,-767.6001105164327 C386.8893571891068,-768.7039405654197,386.8893571891068,-768.7039405654197,387.6938668303977,-769.45972162771 L410.12647810815855,-790.5336055332494 C410.93098774944946,-791.2893865955398,410.93098774944946,-791.2893865955398,410.93098774944946,-792.3932166445268 L410.9309877494495,-828.5702755273217" stroke-width="0.3" stroke="black" fill="none" fill-opacity="0.2" />
<path d="M414.9309877494495,-828.5702755273217 C414.9309877494495,-829.6741055763086,414.9309877494495,-829.6741055763086,413.8271577004625,-829.6741055763086 L412.0348177984365,-829.6741055763086 C410.9309877494495,-829.6741055763086,410.9309877494495,-829.6741055763086,410.9309877494495,-828.5702755273217" stroke-width="0.3" stroke="black" fill="none" fill-opacity="0.2" />
<path d="M355.8893571891069,-598.7436867076458 L355.8893571891068,-724.9280017882029 C355.8893571891068,-726.0318318371899,355.8893571891068,-726.0318318371899,355.1084408216505,-726.8119666999447 L338.99260402689947,-742.9116755164039 C338.21168765944316,-743.6918103791587,338.21168765944316,-743.6918103791587,338.21168765944316,-744.7956404281457 L338.2116876594432,-789.1842612512655" stroke-width="0.3" stroke="black" fill="none" fill-opacity="0.2" />
<path d="M351.8893571891069,-598.7436867076458 L351.8893571891068,-723.2699743746577 C351.8893571891068,-724.3738044236447,351.8893571891068,-724.3738044236447,351.1084408216505,-725.1539392863996 L334.99260402689947,-741.2536481028587 C334.21168765944316,-742.0337829656136,334.21168765944316,-742.0337829656136,334.21168765944316,-743.1376130146006 L334.2116876594432,-789.1842612512655" stroke-width="0.3" stroke="black" fill="none" fill-opacity="0.2" />
<path d="M338.2116876594432,-789.1842612512655 C338.2116876594432,-790.2880913002525,338.2116876594432,-790.2880913002525,337.1078576104562,-790.2880913002525 L335.3155177084302,-790.2880913002525 C334.2116876594432,-790.2880913002525,334.2116876594432,-790.2880913002525,334.2116876594432,-789.1842612512655" stroke-width="0.3" stroke="black" fill="none" fill-opacity="0.2" />
<path d="M372.8893571891069,-598.7436867076458 L372.8893571891069,-527.2436867076458 C372.8893571891069,-526.4158141709055,372.2172297258471,-525.7436867076458,371.3893571891069,-525.7436867076458 C370.56148465236663,-525.7436867076458,369.8893571891069,-526.4158141709055,369.8893571891069,-527.2436867076458 L369.8893571891069,-598.7436867076458" stroke-width="0.3" stroke="black" fill="none" fill-opacity="0.2" />
<path d="M376.8893571891069,-598.7436867076458 L376.8893571891069,-527.2436867076458 C376.8893571891069,-524.2081540729315,374.42488982382116,-521.7436867076458,371.3893571891069,-521.7436867076458 C368.3538245543926,-521.7436867076458,365.8893571891069,-524.2081540729315,365.8893571891069,-527.2436867076458 L365.8893571891069,-598.7436867076458" stroke-width="0.3" stroke="black" fill="none" fill-opacity="0.2" />
<path d="M379.8893571891069,-598.7436867076458 L379.8893571891069,-527.2436867076458 C379.8893571891069,-522.5524089994509,376.0806348973017,-518.7436867076458,371.3893571891069,-518.7436867076458 C366.69807948091204,-518.7436867076458,362.8893571891069,-522.5524089994509,362.8893571891069,-527.2436867076458 L362.8893571891069,-598.7436867076458" stroke-width="0.3" stroke="black" fill="none" fill-opacity="0.2" />
<path d="M383.8893571891069,-598.7436867076458 L383.8893571891069,-527.2436867076458 C383.8893571891069,-520.3447489014769,378.28829499527575,-514.7436867076458,371.3893571891069,-514.7436867076458 C364.490419382938,-514.7436867076458,358.8893571891069,-520.3447489014769,358.8893571891069,-527.2436867076458 L358.8893571891069,-598.7436867076458" stroke-width="0.3" stroke="black" fill="none" fill-opacity="0.2" />
<path d="M386.8893571891069,-598.7436867076458 L386.8893571891069,-527.2436867076458 C386.8893571891069,-518.6890038279964,379.9440400687563,-511.7436867076458,371.3893571891069,-511.7436867076458 C362.83467430945745,-511.7436867076458,355.8893571891069,-518.6890038279964,355.8893571891069,-527.2436867076458 L355.8893571891069,-598.7436867076458" stroke-width="0.3" stroke="black" fill="none" fill-opacity="0.2" />
<path d="M390.8893571891069,-598.7436867076458 L390.8893571891069,-527.2436867076458 C390.8893571891069,-516.4813437300223,382.15170016673034,-507.7436867076458,371.3893571891069,-507.7436867076458 C360.6270142114834,-507.7436867076458,351.8893571891069,-516.4813437300223,351.8893571891069,-527.2436867076458 L351.8893571891069,-598.7436867076458" stroke-width="0.3" stroke="black" fill="none" fill-opacity="0.2" />
<path d="M651.7787143782137,-598.7436867076458 L651.7787143782136,-939.0021428082224 C651.7787143782136,-940.1059728572094,651.7787143782136,-940.1059728572094,652.8714933787611,-940.2617766858183 L671.1920320320761,-942.8738419459786 C672.2848110326236,-943.0296457745875,672.2848110326236,-943.0296457745875,672.2848110326236,-944.1334758235745 L672.2848110326237,-949.483900361492" stroke-width="0.3" stroke="black" fill="none" fill-opacity="0.2" />
<path d="M647.7787143782137,-598.7436867076458 L647.7787143782136,-942.472290824988 C647.7787143782136,-943.576120873975,647.7787143782136,-943.576120873975,648.8714933787611,-943.7319247025839 L667.1920320320761,-946.3439899627442 C668.2848110326236,-946.4997937913531,668.2848110326236,-946.4997937913531,668.2848110326236,-947.6036238403401 L668.2848110326237,-949.483900361492" stroke-width="0.3" stroke="black" fill="none" fill-opacity="0.2" />
<path d="M672.2848110326237,-949.483900361492 C672.2848110326237,-950.587730410479,672.2848110326237,-950.587730410479,671.1809809836367,-950.587730410479 L669.3886410816107,-950.587730410479 C668.2848110326237,-950.587730410479,668.2848110326237,-950.587730410479,668.2848110326237,-949.483900361492" stroke-width="0.3" stroke="black" fill="none" fill-opacity="0.2" />
<path d="M644.7787143782137,-598.7436867076458 L644.7787143782136,-934.1553584386245 C644.7787143782136,-935.2591884876115,644.7787143782136,-935.2591884876115,643.6916220810557,-935.4506855228536 L626.7739235833347,-938.4308272402624 C625.6868312861768,-938.6223242755045,625.6868312861768,-938.6223242755045,625.6868312861768,-939.7261543244915 L625.6868312861769,-942.8794335922265" stroke-width="0.3" stroke="black" fill="none" fill-opacity="0.2" />
<path d="M640.7787143782137,-598.7436867076458 L640.7787143782136,-930.7983922780508 C640.7787143782136,-931.9022223270377,640.7787143782136,-931.9022223270377,639.6916220810557,-932.0937193622799 L622.7739235833349,-935.0738610796886 C621.6868312861769,-935.2653581149308,621.6868312861769,-935.2653581149308,621.6868312861769,-936.3691881639178 L621.6868312861769,-942.8794335922265" stroke-width="0.3" stroke="black" fill="none" fill-opacity="0.2" />
<path d="M625.6868312861769,-942.8794335922265 C625.6868312861769,-943.9832636412135,625.6868312861769,-943.9832636412135,624.5830012371899,-943.9832636412135 L622.7906613351639,-943.9832636412135 C621.6868312861769,-943.9832636412135,621.6868312861769,-943.9832636412135,621.6868312861769,-942.8794335922265" stroke-width="0.3" stroke="black" fill="none" fill-opacity="0.2" />
<path d="M658.7787143782137,-598.7436867076458 L658.7787143782136,-913.6704944765852 C658.7787143782136,-914.7743245255722,658.7787143782136,-914.7743245255722,659.8481832895001,-915.0475954988543 L673.2655946530313,-918.4760159265489 C674.3350635643177,-918.7492868998311,674.3350635643177,-918.7492868998311,674.3350635643177,-919.8531169488181 L674.3350635643178,-931.2312768074876" stroke-width="0.3" stroke="black" fill="none" fill-opacity="0.2" />
<path d="M654.7787143782137,-598.7436867076458 L654.7787143782136,-916.7769300800509 C654.7787143782136,-917.8807601290379,654.7787143782136,-917.8807601290379,655.8481832895001,-918.15403110232 L669.2655946530313,-921.5824515300146 C670.3350635643177,-921.8557225032968,670.3350635643177,-921.8557225032968,670.3350635643177,-922.9595525522838 L670.3350635643178,-931.2312768074876" stroke-width="0.3" stroke="black" fill="none" fill-opacity="0.2" />
<path d="M674.3350635643178,-931.2312768074876 C674.3350635643178,-932.3351068564746,674.3350635643178,-932.3351068564746,673.2312335153308,-932.3351068564746 L671.4388936133048,-932.3351068564746 C670.3350635643178,-932.3351068564746,670.3350635643178,-932.3351068564746,670.3350635643178,-931.2312768074876" stroke-width="0.3" stroke="black" fill="none" fill-opacity="0.2" />
<path d="M637.7787143782137,-598.7436867076458 L637.7787143782136,-896.4529643819969 C637.7787143782136,-897.5567944309839,637.7787143782136,-897.5567944309839,636.7385733398627,-897.9263176337533 L621.1411858869009,-903.4674859503039 C620.1010448485499,-903.8370091530733,620.1010448485499,-903.8370091530733,620.1010448485499,-904.9408392020603 L620.10104484855,-916.5072223857254" stroke-width="0.3" stroke="black" fill="none" fill-opacity="0.2" />
<path d="M633.7787143782137,-598.7436867076458 L633.7787143782136,-893.6290902374606 C633.7787143782136,-894.7329202864476,633.7787143782136,-894.7329202864476,632.7385733398627,-895.102443489217 L617.1411858869009,-900.6436118057675 C616.1010448485499,-901.0131350085369,616.1010448485499,-901.0131350085369,616.1010448485499,-902.1169650575239 L616.10104484855,-916.5072223857254" stroke-width="0.3" stroke="black" fill="none" fill-opacity="0.2" />
<path d="M620.10104484855,-916.5072223857254 C620.10104484855,-917.6110524347124,620.10104484855,-917.6110524347124,618.997214799563,-917.6110524347124 L617.204874897537,-917.6110524347124 C616.10104484855,-917.6110524347124,616.10104484855,-917.6110524347124,616.10104484855,-916.5072223857254" stroke-width="0.3" stroke="black" fill="none" fill-opacity="0.2" />
<path d="M665.7787143782137,-598.7436867076458 L665.7787143782136,-890.208079114502 C665.7787143782136,-891.311909163489,665.7787143782136,-891.311909163489,666.8140427503816,-891.6947092925781 L685.9565894416421,-898.7724341395889 C686.9919178138101,-899.155234268678,686.9919178138101,-899.155234268678,686.9919178138101,-900.259064317665 L686.9919178138102,-909.9090244791191" stroke-width="0.3" stroke="black" fill="none" fill-opacity="0.2" />
<path d="M661.7787143782137,-598.7436867076458 L661.7787143782136,-892.9937843623476 C661.7787143782136,-894.0976144113346,661.7787143782136,-894.0976144113346,662.8140427503816,-894.4804145404237 L681.9565894416421,-901.5581393874346 C682.9919178138101,-901.9409395165237,682.9919178138101,-901.9409395165237,682.9919178138101,-903.0447695655107 L682.9919178138102,-909.9090244791191" stroke-width="0.3" stroke="black" fill="none" fill-opacity="0.2" />
<path d="M686.9919178138102,-909.9090244791191 C686.9919178138102,-911.0128545281061,686.9919178138102,-911.0128545281061,685.8880877648232,-911.0128545281061 L684.0957478627972,-911.0128545281061 C682.9919178138102,-911.0128545281061,682.9919178138102,-911.0128545281061,682.9919178138102,-909.9090244791191" stroke-width="0.3" stroke="black" fill="none" fill-opacity="0.2" />
<path d="M630.7787143782137,-598.7436867076458 L630.7787143782136,-846.7111338885608 C630.7787143782136,-847.8149639375478,630.7787143782136,-847.8149639375478,629.8408764330718,-848.3971157783066 L614.0388827936918,-858.2060169136018 C613.1010448485499,-858.7881687543606,613.1010448485499,-858.7881687543606,613.1010448485499,-859.8919988033476 L613.10104484855,-880.2115742203002" stroke-width="0.3" stroke="black" fill="none" fill-opacity="0.2" />
<path d="M626.7787143782137,-598.7436867076458 L626.7787143782136,-844.4861089322534 C626.7787143782136,-845.5899389812404,626.7787143782136,-845.5899389812404,625.8408764330718,-846.1720908219992 L610.0388827936918,-855.9809919572943 C609.1010448485499,-856.5631437980531,609.1010448485499,-856.5631437980531,609.1010448485499,-857.6669738470401 L609.10104484855,-880.2115742203002" stroke-width="0.3" stroke="black" fill="none" fill-opacity="0.2" />
<path d="M613.10104484855,-880.2115742203002 C613.10104484855,-881.3154042692872,613.10104484855,-881.3154042692872,611.997214799563,-881.3154042692872 L610.204874897537,-881.3154042692872 C609.10104484855,-881.3154042692872,609.10104484855,-881.3154042692872,609.10104484855,-880.2115742203002" stroke-width="0.3" stroke="black" fill="none" fill-opacity="0.2" />
<path d="M672.7787143782137,-598.7436867076458 L672.7787143782137,-749.2072048264681 C672.7787143782137,-750.3110348754551,672.7787143782137,-750.3110348754551,673.5673932597721,-751.0833213500425 L691.7890253698788,-768.9262233886244 C692.5777042514371,-769.6985098632118,692.5777042514371,-769.6985098632118,692.5777042514371,-770.8023399121988 L692.5777042514371,-794.7043455124642" stroke-width="0.3" stroke="black" fill="none" fill-opacity="0.2" />
<path d="M668.7787143782137,-598.7436867076458 L668.7787143782137,-750.8887184673281 C668.7787143782137,-751.9925485163151,668.7787143782137,-751.9925485163151,669.5673932597721,-752.7648349909025 L687.7890253698788,-770.6077370294845 C688.5777042514371,-771.3800235040719,688.5777042514371,-771.3800235040719,688.5777042514371,-772.4838535530589 L688.5777042514371,-794.7043455124642" stroke-width="0.3" stroke="black" fill="none" fill-opacity="0.2" />
<path d="M692.5777042514371,-794.7043455124642 C692.5777042514371,-795.8081755614512,692.5777042514371,-795.8081755614512,691.4738742024501,-795.8081755614512 L689.6815343004241,-795.8081755614512 C688.5777042514371,-795.8081755614512,688.5777042514371,-795.8081755614512,688.5777042514371,-794.7043455124642" stroke-width="0.3" stroke="black" fill="none" fill-opacity="0.2" />
<path d="M623.7787143782137,-598.7436867076458 L623.7787143782137,-691.8913466860287 C623.7787143782137,-692.9951767350157,623.7787143782137,-692.9951767350157,622.9823472744495,-693.7595328124356 L605.4831983899412,-710.5552803217506 C604.6868312861769,-711.3196363991706,604.6868312861769,-711.3196363991706,604.6868312861769,-712.4234664481576 L604.6868312861769,-732.2808978885594" stroke-width="0.3" stroke="black" fill="none" fill-opacity="0.2" />
<path d="M619.7787143782137,-598.7436867076458 L619.7787143782137,-690.1862337050306 C619.7787143782137,-691.2900637540176,619.7787143782137,-691.2900637540176,618.9823472744495,-692.0544198314376 L601.4831983899412,-708.8501673407525 C600.6868312861769,-709.6145234181724,600.6868312861769,-709.6145234181724,600.6868312861769,-710.7183534671594 L600.6868312861769,-732.2808978885594" stroke-width="0.3" stroke="black" fill="none" fill-opacity="0.2" />
<path d="M604.6868312861769,-732.2808978885594 C604.6868312861769,-733.3847279375464,604.6868312861769,-733.3847279375464,603.5830012371899,-733.3847279375464 L601.7906613351639,-733.3847279375464 C600.6868312861769,-733.3847279375464,600.6868312861769,-733.3847279375464,600.6868312861769,-732.2808978885594" stroke-width="0.3" stroke="black" fill="none" fill-opacity="0.2" />
<path d="M647.7787143782137,-598.7436867076458 L647.7787143782137,-527.2436867076458 C647.7787143782137,-526.4158141709055,647.106586914954,-525.7436867076458,646.2787143782137,-525.7436867076458 C645.4508418414734,-525.7436867076458,644.7787143782137,-526.4158141709055,644.7787143782137,-527.2436867076458 L644.7787143782137,-598.7436867076458" stroke-width="0.3" stroke="black" fill="none" fill-opacity="0.2" />
<path d="M651.7787143782137,-598.7436867076458 L651.7787143782137,-527.2436867076458 C651.7787143782137,-524.2081540729315,649.314247012928,-521.7436867076458,646.2787143782137,-521.7436867076458 C643.2431817434995,-521.7436867076458,640.7787143782137,-524.2081540729315,640.7787143782137,-527.2436867076458 L640.7787143782137,-598.7436867076458" stroke-width="0.3" stroke="black" fill="none" fill-opacity="0.2" />
<path d="M654.7787143782137,-598.7436867076458 L654.7787143782137,-527.2436867076458 C654.7787143782137,-522.5524089994509,650.9699920864086,-518.7436867076458,646.2787143782137,-518.7436867076458 C641.5874366700189,-518.7436867076458,637.7787143782137,-522.5524089994509,637.7787143782137,-527.2436867076458 L637.7787143782137,-598.7436867076458" stroke-width="0.3" stroke="black" fill="none" fill-opacity="0.2" />
<path d="M658.7787143782137,-598.7436867076458 L658.7787143782137,-527.2436867076458 C658.7787143782137,-520.3447489014769,653.1776521843826,-514.7436867076458,646.2787143782137,-514.7436867076458 C639.3797765720449,-514.7436867076458,633.7787143782137,-520.3447489014769,633.7787143782137,-527.2436867076458 L633.7787143782137,-598.7436867076458" stroke-width="0.3" stroke="black" fill="none" fill-opacity="0.2" />
<path d="M661.7787143782137,-598.7436867076458 L661.7787143782137,-527.2436867076458 C661.7787143782137,-518.6890038279964,654.8333972578631,-511.7436867076458,646.2787143782137,-511.7436867076458 C637.7240314985644,-511.7436867076458,630.7787143782137,-518.6890038279964,630.7787143782137,-527.2436867076458 L630.7787143782137,-598.7436867076458" stroke-width="0.3" stroke="black" fill="none" fill-opacity="0.2" />
<path d="M665.7787143782137,-598.7436867076458 L665.7787143782137,-527.2436867076458 C665.7787143782137,-516.4813437300223,657.0410573558372,-507.7436867076458,646.2787143782137,-507.7436867076458 C635.5163714005903,-507.7436867076458,626.7787143782137,-516.4813437300223,626.7787143782137,-527.2436867076458 L626.7787143782137,-598.7436867076458" stroke-width="0.3" stroke="black" fill="none" fill-opacity="0.2" />
<path d="M668.7787143782137,-598.7436867076458 L668.7787143782137,-527.2436867076458 C668.7787143782137,-514.8255986565418,658.6968024293177,-504.7436867076458,646.2787143782137,-504.7436867076458 C633.8606263271098,-504.7436867076458,623.7787143782137,-514.8255986565418,623.7787143782137,-527.2436867076458 L623.7787143782137,-598.7436867076458" stroke-width="0.3" stroke="black" fill="none" fill-opacity="0.2" />
<path d="M672.7787143782137,-598.7436867076458 L672.7787143782137,-527.2436867076458 C672.7787143782137,-512.6179385585677,660.9044625272918,-500.7436867076458,646.2787143782137,-500.7436867076458 C631.6529662291357,-500.7436867076458,619.7787143782137,-512.6179385585677,619.7787143782137,-527.2436867076458 L619.7787143782137,-598.7436867076458" stroke-width="0.3" stroke="black" fill="none" fill-opacity="0.2" />
</svg>